<?xml version="1.0" encoding="iso-8859-1"?>
<!-- Generator: Adobe Illustrator 19.1.0, SVG Export Plug-In . SVG Version: 6.00 Build 0)  -->
<!DOCTYPE svg PUBLIC "-//W3C//DTD SVG 1.1//EN" "http://www.w3.org/Graphics/SVG/1.1/DTD/svg11.dtd">
<svg version="1.1" id="dxp-logo" xmlns="http://www.w3.org/2000/svg" xmlns:xlink="http://www.w3.org/1999/xlink" x="0px" y="0px"
	 viewBox="0 0 612 512" style="enable-background:new 0 0 612 512;" xml:space="preserve">
<g transform="matrix( 1, 0, 0, 1, 0,0) ">
	<g>
		<g id="Layer0_0_FILL">
			<path d="M64.6,173.715H0v282.7h65.45c41.967,0,73.967-12.933,96-38.8c21.067-24.7,31.6-59.133,31.6-103.3
				s-10.533-78.35-31.6-102.55C139.417,186.399,107.133,173.715,64.6,173.715 M19.4,190.715h43.65c36.6,0,64.3,11.3,83.1,33.9
				c17.733,21.567,26.6,51.467,26.6,89.7c0,38.167-8.867,68.3-26.6,90.4c-18.8,23.2-46.5,34.8-83.1,34.8H19.4V190.715
				 M257.55,173.715H226.1l76.75,136.5l-81.6,146.2h29.15l84.7-147.8L257.55,173.715 M505.45,345.065h50.8
				c31.267,0,56.05-7.283,74.35-21.85c19.367-15.1,29.05-36.9,29.05-65.4c0-54.933-34.467-82.4-103.4-82.4h-86.4v281.1h35.6V345.065
				 M606.3,215.865c11.9,8.6,17.85,22.583,17.85,41.95c0,38.8-24.217,58.2-72.65,58.2h-46.05v-112.3h46.05
				C576.2,203.715,594.467,207.765,606.3,215.865 M356.1,342.515l-15.3,26.6l49.2,87.3h30.75L356.1,342.515 M415.05,173.715h-29.9
				l-42.8,77.55l15.35,26.7L415.05,173.715z"/>
		</g>
	</g>
</g>
</svg>
