<?xml version="1.0" encoding="UTF-8" standalone="no"?>
<svg width="33px" height="32px" viewBox="0 0 33 32" version="1.1" xmlns="http://www.w3.org/2000/svg" xmlns:xlink="http://www.w3.org/1999/xlink">
    <!-- Generator: Sketch 41.2 (35397) - http://www.bohemiancoding.com/sketch -->
    <title>dxp_logo</title>
    <desc>Created with Sketch.</desc>
    <defs></defs>
    <g id="Symbols" stroke="none" stroke-width="1" fill="none" fill-rule="evenodd">
        <g id="dxp_logo-/-Short">
            <g id="dxp_logo">
                <g id="dxp">
                    <path d="M15.9471584,25.4150857 C11.8828404,21.9228952 8.69039021,17.9128381 10.0088098,11.9592381 C11.4253676,5.56373333 18.0361223,3.39314286 23.6576832,5.01790476 C20.4975413,1.39222857 15.2450985,2.84761905 9.92288196,4.08365714 C9.15520321,4.26179024 8.40266289,4.5003165 7.67222508,4.79702857 C6.20333024,6.5668089 5.40462525,8.80135527 5.4173211,11.1056 C5.23681957,18.4893714 9.37864709,25.6221714 15.9471584,25.4150857 Z" id="Shape"></path>
                    <path d="M17.8357505,26.967619 C17.4612983,26.670527 17.0904359,26.3705905 16.7231633,26.0678095 C9.52866055,26.6253714 4.963337,18.935619 5.1580208,10.9696762 C5.15967261,8.89828144 5.7640924,6.87256058 6.89690275,5.14179048 C1.04008318,7.95809524 -1.81593639,14.5945905 4.33590459,23.5072762 C9.59100183,31.1204571 19.0642226,34.2083048 23.7956379,28.2011429 C21.7250887,28.6890561 19.545717,28.2379894 17.8357505,26.967619 L17.8357505,26.967619 Z" id="Shape"></path>
                    <path d="M27.7228355,19.6992762 C27.5929769,22.0484153 26.9985707,24.3480272 25.9743217,26.4638476 C28.8755425,24.7360762 31.1622997,21.1801143 30.8916991,15.8753524 C30.5100031,16.4545317 30.0955067,17.0112072 29.6502581,17.5426286 C29.0000987,18.3209397 28.3576245,19.0398222 27.7228355,19.6992762 Z" id="Shape"></path>
                    <path d="M25.6070997,5.75420952 C28.2966872,6.98494803 30.3815978,9.24925152 31.3937664,12.038781 C33.458537,2.27207619 16.1242471,-2.58217143 8.69183119,3.7768381 C9.15028991,3.62704762 9.61966972,3.49409524 10.0997431,3.38125714 C16.0214826,1.9895619 22.3538251,0.190019048 25.6070997,5.75420952 Z" id="Shape"></path>
                    <path d="M17.2318287,26.0151619 C17.4852893,26.202819 17.7399633,26.3884952 17.9961541,26.5690667 C19.9376276,27.8208993 22.3637764,28.0461432 24.5007315,27.1729524 C25.5797773,25.2634378 26.2440547,23.1460011 26.4498446,20.96 C23.088345,24.1157333 19.9785615,25.6595048 17.2318287,26.0151619 Z" id="Shape"></path>
                    <path d="M10.2673517,12.1415619 C9.00353761,17.8964571 12.3124037,22.1535238 16.4129737,25.3883429 C19.3851058,25.1413333 22.8285138,23.4078476 26.5771817,19.5643429 C26.6226862,18.8727619 26.6530226,18.1600762 26.6488514,17.4005333 C26.6169982,11.8721524 25.7989015,8.30773333 24.4352049,6.07626667 C18.9461382,3.68525714 11.7179621,5.53569524 10.2673517,12.1415619 Z" id="Shape"></path>
                    <path d="M26.27177,7.08670476 C27.2520905,9.4392381 27.8202911,12.7721905 27.8202911,17.4339048 C27.8202911,17.7148952 27.8051229,17.977219 27.7975388,18.2491429 C28.0619205,17.9504762 28.3273639,17.6452571 28.5944758,17.3254857 C29.4366497,16.3400079 30.1457836,15.2472607 30.7035376,14.0755048 C30.2716006,11.2229808 28.6625773,8.68558659 26.27177,7.08670476 L26.27177,7.08670476 Z" id="Shape"></path>
                    <path d="M26.27177,7.08670476 C25.6918363,6.69385721 25.077069,6.35558617 24.4352807,6.07619048 C25.7989015,8.30765714 26.617074,11.8720762 26.6489272,17.4004571 C26.6532502,18.1600762 26.6228379,18.8726857 26.5772575,19.5642667 C26.9806304,19.1507048 27.3874919,18.7123302 27.7978422,18.2491429 C27.8054263,17.9771429 27.8205945,17.714819 27.8205945,17.4339048 C27.8202911,12.7721905 27.2520905,9.4392381 26.27177,7.08670476 Z" id="Shape" fill="#FFFFFF"></path>
                    <path d="M23.657759,5.01782857 C24.3262445,5.20984829 24.9780938,5.45611893 25.6068722,5.75420952 C22.3532942,0.190019048 16.021255,1.9895619 10.0998948,3.38125714 C9.61982141,3.49409524 9.15036575,3.62712381 8.69198287,3.7768381 C8.32606744,4.08967771 7.98503511,4.43075315 7.67199755,4.79695238 C8.40243536,4.50024031 9.15497569,4.26171405 9.92265443,4.08358095 C15.2451743,2.84754286 20.4976171,1.39215238 23.657759,5.01782857 Z" id="Shape" fill="#FFFFFF"></path>
                    <path d="M4.33590459,23.5072762 C-1.81593639,14.5945905 1.04008318,7.95809524 6.89690275,5.14179048 C7.13321123,4.79439836 7.39238201,4.46327216 7.67268012,4.15062857 C0.998067278,6.84617143 -2.57100917,13.722819 4.28054067,23.8517333 C9.8674422,32.110781 20.3068012,34.7817905 25.183452,27.8033524 C24.7317317,27.9717259 24.2677158,28.1047199 23.7955621,28.2011429 C19.0639193,34.2083048 9.59100183,31.1204571 4.33590459,23.5072762 Z" id="Shape" fill="#FFFFFF"></path>
                    <path d="M26.4496171,20.96 C26.2438272,23.1460011 25.5795498,25.2634378 24.500504,27.1729524 C25.0122413,26.9823566 25.5055032,26.74502 25.9740942,26.4639238 C26.9983432,24.3481033 27.5927494,22.0484915 27.722608,19.6993524 C27.2946626,20.1453714 26.8703323,20.5655873 26.4496171,20.96 Z" id="Shape" fill="#FFFFFF"></path>
                    <path d="M25.6070997,5.75420952 C25.8583141,6.18280836 26.0803779,6.62798989 26.27177,7.08670476 C28.6626814,8.68555807 30.2717938,11.2229902 30.7037651,14.075581 C31.0095185,13.4249851 31.241041,12.7417343 31.393918,12.0388571 C30.3817312,9.2492706 28.2967597,6.98493281 25.6070997,5.75420952 Z" id="Shape" fill="#FFFFFF"></path>
                    <path d="M31.9057688,14.0501333 C31.6150574,14.6839011 31.2760246,15.2941499 30.8916991,15.8754286 C31.1622997,21.1801905 28.8755425,24.736381 25.9743217,26.4639238 C25.7405747,26.9275593 25.4763675,27.37505 25.183452,27.8034286 C29.3186813,26.272 32.9629162,21.6744381 31.9620428,14.3567238 C31.9477089,14.251581 31.9226813,14.1535238 31.9057688,14.0501333 Z" id="Shape" fill="#FFFFFF"></path>
                    <path d="M10.2673517,12.1415619 C11.7179621,5.53584762 18.9461382,3.68525714 24.4352807,6.07626667 C24.2064144,5.70196813 23.9463049,5.3478819 23.657759,5.01782857 C18.0361982,3.39314286 11.4254434,5.56365714 10.0088856,11.9591619 C8.69039021,17.9128381 11.8828404,21.922819 15.9472343,25.4150095 C16.1012926,25.4099302 16.2565896,25.4010159 16.4131254,25.3882667 C12.3124037,22.1535238 9.00353761,17.8964571 10.2673517,12.1415619 Z" id="Shape" fill="#FFFFFF"></path>
                    <path d="M17.99623,26.5689905 C17.7396599,26.3884952 17.4853651,26.2027429 17.2319046,26.0150857 C17.060959,26.0372825 16.8914039,26.0548317 16.7232391,26.0677333 C17.0901578,26.3705651 17.4610202,26.6705016 17.8358263,26.9675429 C19.5457929,28.2379132 21.7251645,28.6889799 23.7957138,28.2010667 C24.0518223,27.8732329 24.2873842,27.5297125 24.5010349,27.1724952 C22.3640754,28.0458786 19.9378247,27.8207752 17.99623,26.5689905 Z" id="Shape" fill="#FFFFFF"></path>
                    <path d="M24.5007315,27.1728762 C24.2870808,27.5300934 24.0515189,27.8736139 23.7954104,28.2014476 C24.2675641,28.1050247 24.73158,27.9720306 25.1833003,27.8036571 C25.4762158,27.3752786 25.740423,26.9277879 25.97417,26.4641524 C25.5056164,26.7451353 25.0124059,26.9823695 24.5007315,27.1728762 Z" id="Shape" fill="#FFFFFF"></path>
                    <path d="M26.27177,7.08670476 C26.0803779,6.62798989 25.8583141,6.18280836 25.6070997,5.75420952 C24.9783213,5.45611893 24.3264721,5.20984829 23.6579865,5.01782857 C23.9465325,5.3478819 24.2066419,5.70196813 24.4355083,6.07626667 C25.0772154,6.35565063 25.6919059,6.69389583 26.27177,7.08670476 Z" id="Shape" fill="#FFFFFF"></path>
                    <path d="M16.4130495,25.3883429 C16.6832457,25.6016762 16.9562732,25.8106159 17.2321321,26.0151619 C19.9788648,25.6595048 23.0886483,24.1157333 26.4499205,20.9599238 C26.5044502,20.511619 26.5457835,20.0448762 26.577485,19.5643429 C22.8285138,23.4078476 19.3849541,25.1413333 16.4130495,25.3883429 Z" id="Shape" fill="#FFFFFF"></path>
                    <path d="M30.7036893,14.075581 C30.1459704,15.247386 29.4368618,16.3401849 28.5947034,17.3257143 C28.3276673,17.6457143 28.0622239,17.9504762 27.7977664,18.2493714 C27.7842667,18.7471492 27.7592897,19.2305016 27.7228355,19.6994286 C28.3575739,19.0383492 29.0000481,18.3194667 29.6502581,17.542781 C30.0955067,17.0113596 30.5100031,16.454684 30.8916991,15.8755048 C30.8671266,15.3924571 30.8285994,14.9002667 30.7600391,14.3878857 C30.7459327,14.2807619 30.7207535,14.1808 30.7036893,14.075581 Z" id="Shape" fill="#FFFFFF"></path>
                    <path d="M31.3941456,12.038781 C31.6248771,12.6923364 31.7961198,13.3655712 31.9057688,14.0502095 C37.4507303,1.89020952 15.3234422,-4.43070476 7.67268012,4.15070476 C8.00554618,4.01622857 8.34470703,3.89051429 8.6922104,3.77699048 C16.1246263,-2.58217143 33.4588404,2.27207619 31.3941456,12.038781 Z" id="Shape" fill="#FFFFFF"></path>
                    <path d="M16.7229358,26.0678095 C16.4614866,25.8520381 16.2028183,25.6344635 15.9469309,25.4150857 C9.37841957,25.6221714 5.23659205,18.4893714 5.41701774,11.1053714 C5.40432189,8.8011267 6.20302688,6.56658033 7.67192171,4.7968 C7.40794455,4.90422857 7.14950377,5.01914921 6.89659939,5.1415619 C5.76378904,6.87233201 5.15936925,8.89805287 5.15771743,10.9694476 C4.96341284,18.935619 9.52866055,26.6254476 16.7229358,26.0678095 Z" id="Shape" fill="#FFFFFF"></path>
                    <path d="M7.67222508,4.79702857 C7.98526264,4.43082934 8.32629496,4.0897539 8.6922104,3.77691429 C8.34470703,3.8904381 8.00547034,4.01622857 7.67268012,4.15062857 C7.39238201,4.46327216 7.13321123,4.79439836 6.89690275,5.14179048 C7.15021162,5.0199873 7.4086524,4.90506667 7.67222508,4.79702857 Z" id="Shape" fill="#FFFFFF"></path>
                    <path d="M26.4496171,20.96 C26.8702818,20.5652317 27.2946626,20.1450159 27.7227596,19.6993524 C27.7599217,19.2312889 27.7848987,18.7479365 27.7976905,18.2492952 C27.3875425,18.7125333 26.9806809,19.1509079 26.5771058,19.564419 C26.5454801,20.0448762 26.5041468,20.511619 26.4496171,20.96 Z" id="Shape" fill="#FFFFFF"></path>
                    <path d="M30.7036893,14.075581 C30.7207535,14.1808 30.7456294,14.2807619 30.7599633,14.3879619 C30.8282202,14.9000381 30.8670508,15.3926095 30.8916232,15.875581 C31.2759488,15.2943023 31.6149815,14.6840535 31.905693,14.0502857 C31.796044,13.3656474 31.6248013,12.6924126 31.3940697,12.0388571 C31.2411198,12.7417437 31.0095208,13.4249948 30.7036893,14.075581 L30.7036893,14.075581 Z" id="Shape" fill="#FFFFFF"></path>
                    <path d="M15.9471584,25.4150857 C16.2025403,25.6346667 16.4612086,25.8522413 16.7231633,26.0678095 C16.8912775,26.0548063 17.0608326,26.0372571 17.2318287,26.0151619 C16.9558687,25.8108698 16.6828412,25.6019302 16.4127462,25.3883429 C16.2563621,25.4013968 16.1011662,25.4103111 15.9471584,25.4150857 Z" id="Shape" fill="#FFFFFF"></path>
                </g>
            </g>
        </g>
    </g>
</svg>