<?xml version="1.0" encoding="UTF-8" standalone="no"?>
<svg width="42px" height="18px" viewBox="0 0 42 18" version="1.1" xmlns="http://www.w3.org/2000/svg" xmlns:xlink="http://www.w3.org/1999/xlink">
    <!-- Generator: Sketch 41.2 (35397) - http://www.bohemiancoding.com/sketch -->
    <title>Group 2</title>
    <desc>Created with Sketch.</desc>
    <defs></defs>
    <g id="Symbols" stroke="none" stroke-width="1" fill="none" fill-rule="evenodd">
        <g id="dxp_logo" transform="translate(-41.000000, -11.000000)" fill="#FFFFFF">
            <g id="dxp">
                <g>
                    <g id="Group-2" transform="translate(41.000000, 11.000000)">
                        <path d="M0.580347401,0.277485714 L4.59862997,0.277485714 C9.96513761,0.277485714 12.5293211,3.6768 12.5293211,8.96175238 C12.5293211,14.2731429 9.96521346,17.778819 4.62525015,17.778819 L0.580347401,17.778819 L0.580347401,0.277866667 L0.580347401,0.277485714 Z M4.46643914,16.7430095 C9.19846116,16.7430095 11.2605015,13.5296 11.2605015,8.96175238 C11.2605015,4.4208 9.19846116,1.31321905 4.46643914,1.31321905 L1.7968367,1.31321905 L1.7968367,16.7430095 L4.46643914,16.7430095 Z" id="Shape"></path>
                        <path d="M29.6639976,0.357333333 L35.0039609,0.357333333 C38.8371156,0.357333333 41.4012991,1.65866667 41.4012991,5.48281905 C41.4012991,9.14758095 38.7842544,10.8738286 35.0039609,10.8738286 L31.8845456,10.8738286 L31.8845456,17.778819 L29.6639976,17.778819 L29.6639976,0.357333333 Z M34.7130349,9.06780952 C37.7531963,9.06780952 39.2070679,7.95268571 39.2070679,5.48281905 C39.2070679,2.96 37.7002593,2.13638095 34.7130349,2.13638095 L31.8845456,2.13638095 L31.8845456,9.06780952 L34.7130349,9.06780952 Z" id="Shape"></path>
                        <path d="M22.6264856,10.7219048 L26.6314202,17.7787429 L24.7255364,17.7787429 L21.6705101,12.3852952 L22.6264856,10.7219048 Z M21.7858642,5.09013333 L24.4422703,0.277561905 L26.2861162,0.277561905 L22.726444,6.72678095 L21.7858642,5.09013333 Z M19.3286165,8.73470476 L14.5749798,0.277561905 L16.5202251,0.277561905 L21.3073835,8.64525714 L16.0689713,17.778819 L14.2563719,17.778819 L19.3286165,8.73470476 Z" id="Shape"></path>
                    </g>
                </g>
            </g>
        </g>
    </g>
</svg>