<?xml version="1.0" encoding="iso-8859-1"?>
<!-- Generator: Adobe Illustrator 19.1.0, SVG Export Plug-In . SVG Version: 6.00 Build 0)  -->
<!DOCTYPE svg PUBLIC "-//W3C//DTD SVG 1.1//EN" "http://www.w3.org/Graphics/SVG/1.1/DTD/svg11.dtd">
<svg version="1.1" id="dxp-contacts" xmlns="http://www.w3.org/2000/svg" xmlns:xlink="http://www.w3.org/1999/xlink" x="0px"
	 y="0px" viewBox="0 0 512 512" style="enable-background:new 0 0 512 512;" xml:space="preserve">
<path d="M221.45,148.5c17.067-17.067,25.6-37.55,25.6-61.45s-8.533-44.383-25.6-61.45S183.9,0,160,0s-43.95,8.533-60.15,25.6
	c-17.067,17.067-25.6,37.55-25.6,61.45c0,16.2,3.833,30.7,11.5,43.5c-17.067,11.1-30.283,22.2-39.65,33.3
	C15.367,198.85,0,240.233,0,288c0,8.533,3.417,16.217,10.25,23.05C16.217,317.017,23.467,320,32,320c9.4,0,17.083-2.983,23.05-8.95
	C61.017,305.083,64,297.4,64,288c0-31.567,9.383-58.45,28.15-80.65c18.8-22.167,41.417-33.25,67.85-33.25
	C183.9,174.1,204.383,165.567,221.45,148.5 M176.65,70.4c4.267,5.133,6.4,10.683,6.4,16.65c0,6.833-2.133,12.383-6.4,16.65
	c-4.267,4.267-9.817,6.4-16.65,6.4c-5.967,0-11.083-2.133-15.35-6.4c-4.267-5.133-6.4-10.683-6.4-16.65
	c0-5.967,2.133-11.517,6.4-16.65c4.267-4.267,9.383-6.4,15.35-6.4C166.833,64,172.383,66.133,176.65,70.4 M458.25,330.25
	c-15.367-17.933-33.717-32.867-55.05-44.8c11.967-16.2,17.95-34.967,17.95-56.3c0-28.167-9.817-52.067-29.45-71.7
	C372.067,137.817,348.167,128,320,128c-27.3,0-50.767,9.817-70.4,29.45c-19.633,19.633-29.45,43.533-29.45,71.7
	c0,21.333,5.983,40.1,17.95,56.3c-21.333,11.933-39.683,26.867-55.05,44.8C146.35,372.05,128,421.967,128,480
	c0,8.533,3.417,16.217,10.25,23.05c5.967,5.967,13.217,8.95,21.75,8.95c9.4,0,17.083-2.983,23.05-8.95
	c5.967-5.967,8.95-13.65,8.95-23.05c0-41.8,12.383-77.217,37.15-106.25c25.6-29.867,55.883-44.8,90.85-44.8
	c35.833,0,66.133,14.933,90.9,44.8C435.633,402.783,448,438.2,448,480c0,8.533,3.417,16.217,10.25,23.05
	c5.967,5.967,13.217,8.95,21.75,8.95c9.4,0,17.083-2.983,23.05-8.95c5.967-5.967,8.95-13.65,8.95-23.05
	C512,421.133,494.083,371.217,458.25,330.25 M346.9,203.55c6.833,6.8,10.25,15.333,10.25,25.6c0,9.367-3.417,17.9-10.25,25.6
	c-7.7,6.8-16.667,10.2-26.9,10.2c-9.367,0-17.9-3.4-25.6-10.2c-6.833-7.7-10.25-16.233-10.25-25.6c0-10.267,3.417-18.8,10.25-25.6
	c7.7-7.7,16.233-11.55,25.6-11.55C330.233,192,339.2,195.85,346.9,203.55z"/>
</svg>
