<?xml version="1.0" encoding="iso-8859-1"?>
<!-- Generator: Adobe Illustrator 19.1.0, SVG Export Plug-In . SVG Version: 6.00 Build 0)  -->
<!DOCTYPE svg PUBLIC "-//W3C//DTD SVG 1.1//EN" "http://www.w3.org/Graphics/SVG/1.1/DTD/svg11.dtd">
<svg version="1.1" id="dxp-assets" xmlns="http://www.w3.org/2000/svg" xmlns:xlink="http://www.w3.org/1999/xlink" x="0px" y="0px"
	 viewBox="0 0 512 512" style="enable-background:new 0 0 512 512;" xml:space="preserve">
<path d="M145.931,192.627L0.012,254.069l152.32,62.723L0.012,380.795l256,106.244l256-106.244l-151.04-64.003l151.04-62.723
	l-145.92-61.442l145.92-60.163l-256-107.524l-256,107.524L145.931,192.627 M256.012,77.422l131.84,55.042l-83.2,34.562
	l-48.64-20.481l-47.36,20.481l-83.2-34.562L256.012,77.422 M125.452,254.069l83.2-34.561l47.36,19.201l47.36-19.201l84.48,34.561
	l-89.6,37.122l-42.24-17.921l-40.96,17.921L125.452,254.069 M256.012,360.314l42.24-16.641l89.6,37.122l-131.84,53.762
	l-130.56-53.762l89.6-37.122L256.012,360.314z"/>
</svg>
